#!OML:ASF E:\Mandelcareful walks\Project 1\Capture day 1\Session 1\Subject1.ASF
:FULLY-SPECIFIED
:DEGREES
480
root 6.3138 15.4709 0.0633513 -131.23 -82.6606 135.596
lowerback 20.6523 -2.34458 -1.79071
upperback 6.55593 -4.01008 -2.05346
thorax -4.44533 -2.15579 -0.202772
lowerneck -21.1176 -11.5182 -14.0144
upperneck 16.4755 -14.1056 11.4293
head 10.5996 -6.20059 3.99551
rclavicle -1.90833e-014 -1.13307e-014
rhumerus -70.2963 20.2822 -101.532
rradius 85.146
rwrist -11.8704
rhand -30.6476 -4.63313
rfingers 7.12502
rthumb -3.94288 -34.5764
lclavicle -1.90833e-014 -1.13307e-014
lhumerus -19.6536 -15.0736 84.7117
lradius 52.7839
lwrist 18.1254
lhand -23.1383 -14.3773
lfingers 7.12502
lthumb 3.30952 15.5768
rfemur -27.7342 -10.3204 2.99103
rtibia 53.8632
rfoot -24.3137 -7.67888
rtoes -12.3528
lfemur -29.6848 13.4285 -11.3343
ltibia 54.0806
lfoot -21.2787 1.99158
ltoes -13.1691
481
root 6.31929 15.4655 0.051973 -129.292 -82.4724 133.653
lowerback 20.4319 -2.35912 -2.06107
upperback 6.74942 -4.08771 -2.11788
thorax -4.10997 -2.20547 -0.118441
lowerneck -21.105 -11.6801 -14.3368
upperneck 15.9216 -14.3251 12.0665
head 10.5124 -6.26135 4.22776
rclavicle -9.83984e-015 3.1408e-014
rhumerus -69.8699 20.3514 -101.407
rradius 85.1031
rwrist -11.9503
rhand -30.5128 -4.62739
rfingers 7.12502
rthumb -3.81271 -34.573
lclavicle -9.83984e-015 3.1408e-014
lhumerus -19.3346 -15.2026 84.7209
lradius 52.7876
lwrist 18.0509
lhand -22.7168 -14.7667
lfingers 7.12502
lthumb 3.71658 15.1806
rfemur -27.7387 -10.5066 2.68686
rtibia 53.8842
rfoot -24.3447 -7.57051
rtoes -12.3845
lfemur -29.6645 13.3401 -11.6382
ltibia 53.9688
lfoot -21.2157 2.03154
ltoes -13.4872
482
root 6.32234 15.4648 0.0417752 -127.858 -82.2799 132.184
lowerback 20.2575 -2.39487 -2.34567
upperback 6.95589 -4.1971 -2.18355
thorax -3.78275 -2.27284 -0.019402
lowerneck -21.9384 -11.7902 -13.8301
upperneck 16.5516 -14.419 11.376
head 10.7957 -6.30257 3.85598
rclavicle -1.12313e-014 -2.50469e-014
rhumerus -69.3982 20.5154 -101.307
rradius 85.0189
rwrist -11.861
rhand -30.098 -5.29427
rfingers 7.12502
rthumb -3.41206 -35.2467
lclavicle -1.12313e-014 -2.50469e-014
lhumerus -18.9989 -15.2327 84.7067
lradius 52.8793
lwrist 18.1566
lhand -22.61 -14.5267
lfingers 7.12502
lthumb 3.81971 15.4188
rfemur -27.7037 -10.5996 2.41612
rtibia 53.8924
rfoot -24.3188 -7.534
rtoes -12.1939
lfemur -29.5858 13.2511 -11.8888
ltibia 53.8345
lfoot -21.167 2.05064
ltoes -13.6424
483
root 6.32116 15.4736 0.0341251 -128.154 -82.1782 132.468
lowerback 20.0894 -2.42869 -2.38385
upperback 7.07568 -4.24949 -2.22409
thorax -3.56766 -2.30614 -0.0424089
lowerneck -21.8304 -11.8819 -14.0845
upperneck 16.2462 -14.5662 11.8554
head 10.7519 -6.34305 4.04005
rclavicle -3.62782e-014 2.5842e-015
rhumerus -69.1381 20.6583 -101.335
rradius 84.846
rwrist -11.7156
rhand -29.9462 -5.48215
rfingers 7.12502
rthumb -3.2655 -35.4369
lclavicle -3.62782e-014 2.5842e-015
lhumerus -18.7848 -15.1359 84.6869
lradius 53.2217
lwrist 18.0551
lhand -22.3344 -12.8163
lfingers 7.12502
lthumb 4.08582 17.1242
rfemur -27.6801 -10.5277 2.39301
rtibia 53.8248
rfoot -24.2041 -7.54357
rtoes -11.8957
lfemur -29.4463 13.2347 -11.9041
ltibia 53.672
lfoot -21.1043 2.1967
ltoes -13.5599
484
root 6.31464 15.485 0.0300966 -129.243 -82.071 133.595
lowerback 19.8462 -2.40807 -2.25772
upperback 7.15227 -4.19435 -2.27162
thorax -3.37375 -2.28249 -0.19134
lowerneck -21.7533 -11.868 -14.015
upperneck 16.2038 -14.5518 11.7637
head 10.7064 -6.34569 4.00207
rclavicle -5.725e-014 -8.15017e-015
rhumerus -68.9556 20.6384 -101.386
rradius 84.6694
rwrist -11.6431
rhand -30.0031 -5.35708
rfingers 7.12502
rthumb -3.32042 -35.311
lclavicle -5.725e-014 -8.15017e-015
lhumerus -18.6203 -15.142 84.7063
lradius 53.4493
lwrist 17.8879
lhand -21.9886 -11.5838
lfingers 7.12502
lthumb 4.41974 18.3501
rfemur -27.7091 -10.4055 2.44435
rtibia 53.6916
rfoot -24.0831 -7.54485
rtoes -12.0288
lfemur -29.3067 13.2974 -11.8752
ltibia 53.5059
lfoot -21.0555 2.39424
ltoes -13.5321
485
root 6.30293 15.4951 0.0286169 -129.707 -81.8747 134.06
lowerback 19.6494 -2.3543 -2.23397
upperback 7.18373 -4.11622 -2.32247
thorax -3.24495 -2.24597 -0.286835
lowerneck -21.5739 -11.9206 -14.0331
upperneck 16.0812 -14.6186 11.7153
head 10.636 -6.39098 3.97992
rclavicle 8.34896e-015 -1.33186e-014
rhumerus -68.9636 20.61 -101.399
rradius 84.6158
rwrist -11.6482
rhand -30.1656 -5.30321
rfingers 7.12502
rthumb -3.4774 -35.2546
lclavicle 8.34896e-015 -1.33186e-014
lhumerus -18.5598 -15.3374 84.8336
lradius 53.4589
lwrist 17.9948
lhand -22.0452 -11.3994
lfingers 7.12502
lthumb 4.36509 18.5356
rfemur -27.6796 -10.3534 2.32909
rtibia 53.5393
rfoot -23.9885 -7.53955
rtoes -12.4391
lfemur -29.1288 13.3157 -11.9892
ltibia 53.3581
lfoot -21.1294 2.51403
ltoes -13.5301
486
root 6.29445 15.5018 0.0256426 -129.699 -81.8191 134.011
lowerback 19.5845 -2.35011 -2.15974
upperback 7.18432 -4.09628 -2.35761
thorax -3.21879 -2.23528 -0.373265
lowerneck -21.5534 -11.9319 -13.8587
upperneck 16.1534 -14.6495 11.5061
head 10.6287 -6.41631 3.87338
rclavicle 4.87022e-015 4.19436e-014
rhumerus -69.1131 20.5512 -101.42
rradius 84.6868
rwrist -11.6437
rhand -30.3279 -5.25518
rfingers 7.12502
rthumb -3.63415 -35.2039
lclavicle 4.87022e-015 4.19436e-014
lhumerus -18.5888 -15.5659 84.9463
lradius 53.5159
lwrist 18.1177
lhand -22.2852 -11.4505
lfingers 7.12502
lthumb 4.13338 18.4892
rfemur -27.5394 -10.4065 2.27215
rtibia 53.3959
rfoot -24.0209 -7.39849
rtoes -12.5919
lfemur -28.9934 13.2454 -12.0187
ltibia 53.2519
lfoot -21.162 2.56428
ltoes -13.471
487
root 6.29481 15.5044 0.0205611 -129.915 -81.9844 134.256
lowerback 19.5527 -2.40115 -1.93647
upperback 7.15466 -4.1154 -2.33152
thorax -3.2474 -2.24019 -0.467442
lowerneck -21.732 -11.9709 -13.6577
upperneck 16.3404 -14.7181 11.3161
head 10.7029 -6.44548 3.75489
rclavicle 1.69961e-014 1.59028e-015
rhumerus -69.2517 20.5175 -101.472
rradius 84.7832
rwrist -11.6766
rhand -30.5553 -4.9753
rfingers 7.12502
rthumb -3.85374 -34.9202
lclavicle 1.69961e-014 1.59028e-015
lhumerus -18.6265 -15.7383 85.0259
lradius 53.5877
lwrist 18.1643
lhand -22.4386 -11.9709
lfingers 7.12502
lthumb 3.98526 17.9716
rfemur -27.4968 -10.4975 2.46201
rtibia 53.2816
rfoot -24.0449 -7.3536
rtoes -12.4711
lfemur -29.0194 13.2191 -11.8466
ltibia 53.1931
lfoot -21.0824 2.54225
ltoes -13.4595
488
root 6.29744 15.5055 0.0149153 -130.504 -82.1901 134.861
lowerback 19.5262 -2.43902 -1.72494
upperback 7.15636 -4.11909 -2.26574
thorax -3.24133 -2.23951 -0.517343
lowerneck -21.4589 -11.98 -13.729
upperneck 16.0891 -14.7679 11.5159
head 10.5954 -6.46656 3.83694
rclavicle -6.71892e-014 -1.68967e-014
rhumerus -69.3013 20.616 -101.513
rradius 84.8477
rwrist -11.8354
rhand -30.8559 -4.44281
rfingers 7.12502
rthumb -4.14396 -34.3823
lclavicle -6.71892e-014 -1.68967e-014
lhumerus -18.5696 -15.9085 85.0832
lradius 53.5805
lwrist 18.4151
lhand -22.4291 -12.6084
lfingers 7.12502
lthumb 3.99438 17.3339
rfemur -27.4764 -10.5197 2.73371
rtibia 53.2005
rfoot -23.9399 -7.5856
rtoes -12.569
lfemur -29.0289 13.2229 -11.5939
ltibia 53.1668
lfoot -21.026 2.47206
ltoes -13.4268
489
root 6.29714 15.5059 0.0116696 -130.906 -82.2467 135.225
lowerback 19.507 -2.43762 -1.67891
upperback 7.20403 -4.10863 -2.23738
thorax -3.18137 -2.23627 -0.518208
lowerneck -21.7002 -12.0868 -13.6969
upperneck 16.276 -14.9142 11.5081
head 10.7222 -6.51898 3.79066
rclavicle 2.39536e-014 -1.59028e-015
rhumerus -69.2898 20.7626 -101.511
rradius 84.9561
rwrist -12.0233
rhand -31.0216 -4.32735
rfingers 7.12502
rthumb -4.30399 -34.2636
lclavicle 2.39536e-014 -1.59028e-015
lhumerus -18.4467 -15.9931 85.1012
lradius 53.5971
lwrist 18.6749
lhand -22.2728 -12.7443
lfingers 7.12502
lthumb 4.14535 17.1951
rfemur -27.3948 -10.483 2.83464
rtibia 53.1435
rfoot -23.7909 -7.80884
rtoes -12.4786
lfemur -28.9691 13.2243 -11.4802
ltibia 53.1571
lfoot -20.9894 2.45747
ltoes -13.3413
490
root 6.29554 15.5061 0.0106258 -130.627 -82.2124 134.909
lowerback 19.5013 -2.46069 -1.78561
upperback 7.23842 -4.16087 -2.24738
thorax -3.13513 -2.26508 -0.459145
lowerneck -21.8534 -12.1199 -13.6905
upperneck 16.3779 -14.9631 11.5452
head 10.7962 -6.52897 3.78726
rclavicle -3.97569e-016 -1.35174e-014
rhumerus -69.2923 20.9108 -101.471
rradius 85.2543
rwrist -12.0625
rhand -30.7897 -5.09945
rfingers 7.12502
rthumb -4.08003 -35.0401
lclavicle -3.97569e-016 -1.35174e-014
lhumerus -18.3409 -15.9412 85.0646
lradius 53.6613
lwrist 18.7266
lhand -22.201 -12.5416
lfingers 7.12502
lthumb 4.21467 17.3965
rfemur -27.31 -10.4918 2.76305
rtibia 53.1086
rfoot -23.8215 -7.74813
rtoes -12.0504
lfemur -28.9219 13.2486 -11.5355
ltibia 53.1452
lfoot -20.9377 2.47639
ltoes -13.4032
491
root 6.29373 15.5067 0.0118476 -129.893 -82.1744 134.131
lowerback 19.4824 -2.50826 -1.91789
upperback 7.27339 -4.25092 -2.28946
thorax -3.08186 -2.31272 -0.4123
lowerneck -21.804 -12.1237 -13.714
upperneck 16.3033 -14.9925 11.676
head 10.7793 -6.53353 3.83337
rclavicle 9.83984e-015 1.92821e-014
rhumerus -69.2046 21.0394 -101.351
rradius 85.606
rwrist -12.0387
rhand -30.059 -6.3324
rfingers 7.12502
rthumb -3.37443 -36.2854
lclavicle 9.83984e-015 1.92821e-014
lhumerus -18.2112 -15.8544 84.9617
lradius 53.6542
lwrist 18.6846
lhand -22.2775 -12.4096
lfingers 7.12502
lthumb 4.1408 17.5299
rfemur -27.2215 -10.5579 2.62336
rtibia 53.0813
rfoot -23.9707 -7.50879
rtoes -11.9854
lfemur -28.8668 13.1966 -11.6555
ltibia 53.1338
lfoot -20.9515 2.50852
ltoes -13.4892
492
root 6.29273 15.5087 0.01715 -128.979 -82.0631 133.221
lowerback 19.4105 -2.51068 -2.06812
upperback 7.28321 -4.28336 -2.35821
thorax -3.02899 -2.33094 -0.397926
lowerneck -21.5351 -12.1622 -13.8304
upperneck 16.3105 -15.0688 11.7527
head 10.762 -6.57802 3.87285
rclavicle -8.54774e-015 -7.55382e-015
rhumerus -69.196 21.1819 -101.273
rradius 85.8497
rwrist -12.2448
rhand -29.4753 -6.62318
rfingers 7.12502
rthumb -2.8107 -36.5844
lclavicle -8.54774e-015 -7.55382e-015
lhumerus -18.1389 -15.8039 84.8955
lradius 53.6191
lwrist 18.6168
lhand -22.3898 -12.4552
lfingers 7.12502
lthumb 4.03241 17.4864
rfemur -27.2222 -10.6224 2.41319
rtibia 53.0555
rfoot -23.9426 -7.45189
rtoes -12.3665
lfemur -28.8634 13.0781 -11.8693
ltibia 53.1406
lfoot -21.0342 2.5822
ltoes -13.4305
493
root 6.29465 15.51 0.0218825 -129.414 -82.1268 133.699
lowerback 19.3904 -2.51047 -2.03013
upperback 7.23605 -4.26978 -2.3158
thorax -3.06849 -2.32149 -0.376674
lowerneck -21.4792 -12.2569 -14.1522
upperneck 16.3613 -15.1911 12.0546
head 10.8447 -6.62243 4.00644
rclavicle 1.64991e-014 -1.61016e-014
rhumerus -69.4441 21.4451 -101.285
rradius 86.1853
rwrist -12.7967
rhand -29.3291 -5.83356
rfingers 7.12502
rthumb -2.66958 -35.7966
lclavicle 1.64991e-014 -1.61016e-014
lhumerus -18.2023 -15.6726 84.907
lradius 53.6565
lwrist 18.5
lhand -22.4255 -12.431
lfingers 7.12502
lthumb 3.99788 17.5112
rfemur -27.2857 -10.5265 2.5276
rtibia 53.0177
rfoot -23.8603 -7.60434
rtoes -12.617
lfemur -28.9377 13.0583 -11.7827
ltibia 53.1789
lfoot -21.0566 2.57252
ltoes -13.2138
